<svg width="260" height="201" viewBox="0 0 260 201" fill="none" xmlns="http://www.w3.org/2000/svg">
  <g clip-path="url(#clip0)">
    <path d="M157.98 125.13L157.556 130.09C157.506 130.669 157.228 131.205 156.781 131.579C156.335 131.954 155.758 132.137 155.176 132.088L113.662 128.572C113.081 128.522 112.543 128.244 112.167 127.8C111.79 127.356 111.606 126.781 111.655 126.202L112.079 121.242C112.129 120.663 112.408 120.127 112.854 119.753C113.3 119.378 113.878 119.195 114.459 119.243L155.973 122.76C156.555 122.81 157.093 123.088 157.469 123.532C157.845 123.976 158.029 124.551 157.98 125.13Z" fill="#9F97FF"/>
    <path d="M166.255 149.323L161.657 151.276C160.54 151.75 159.391 151.574 159.095 150.884L148.94 127.183C148.644 126.492 149.312 125.544 150.428 125.07L155.026 123.116C156.143 122.642 157.292 122.818 157.588 123.509L167.743 147.21C168.039 147.901 167.371 148.848 166.255 149.323Z" fill="#9F97FF"/>
    <path d="M141.913 141.644H64.0507C64.9474 135.181 63.8414 128.6 60.8803 122.78C57.9193 116.96 53.2444 112.178 47.4809 109.075C41.7173 105.972 35.1396 104.695 28.6275 105.415C22.1153 106.134 15.9789 108.817 11.0389 113.102C6.09889 117.388 2.59065 123.074 0.983265 129.399C-0.624118 135.724 -0.254028 142.386 2.04405 148.496C4.34213 154.606 8.45866 159.872 13.8432 163.589C19.2278 167.306 25.6238 169.298 32.1759 169.298C36.1123 169.302 40.0158 168.585 43.6915 167.183V198.302C43.6915 199.018 43.977 199.704 44.4851 200.21C44.9933 200.716 45.6825 201 46.4011 201H141.913C142.631 201 143.321 200.716 143.829 200.21C144.337 199.704 144.622 199.018 144.622 198.302V144.342C144.622 143.626 144.337 142.94 143.829 142.434C143.321 141.928 142.631 141.644 141.913 141.644Z" fill="#695EE8"/>
    <path d="M147.671 193.918H52.1591C51.3509 193.917 50.5761 193.597 50.0047 193.028C49.4332 192.459 49.1118 191.687 49.1108 190.883V136.922C49.1118 136.118 49.4332 135.346 50.0047 134.777C50.5761 134.208 51.3509 133.888 52.1591 133.887H147.671C148.479 133.888 149.254 134.208 149.825 134.777C150.397 135.346 150.718 136.118 150.719 136.922V190.883C150.718 191.687 150.397 192.459 149.825 193.028C149.254 193.597 148.479 193.917 147.671 193.918ZM52.1591 134.562C51.5305 134.562 50.9279 134.811 50.4834 135.254C50.039 135.696 49.789 136.297 49.7882 136.922V190.883C49.789 191.508 50.039 192.108 50.4834 192.551C50.9279 192.994 51.5305 193.243 52.1591 193.243H147.671C148.299 193.243 148.902 192.994 149.346 192.551C149.791 192.108 150.041 191.508 150.042 190.883V136.922C150.041 136.297 149.791 135.696 149.346 135.254C148.902 134.811 148.299 134.562 147.671 134.562H52.1591Z" fill="#3F3D56"/>
    <path d="M147.819 128.84L147.395 133.8C147.345 134.379 147.066 134.914 146.62 135.289C146.174 135.664 145.597 135.847 145.015 135.798L103.501 132.281C102.92 132.232 102.382 131.954 102.005 131.51C101.629 131.065 101.445 130.491 101.494 129.911L101.918 124.952C101.968 124.373 102.247 123.837 102.693 123.462C103.139 123.088 103.716 122.905 104.298 122.953L145.812 126.47C146.394 126.52 146.931 126.797 147.308 127.242C147.684 127.686 147.868 128.261 147.819 128.84Z" fill="#9F97FF"/>
    <path d="M156.094 153.032L151.496 154.986C150.38 155.46 149.23 155.284 148.934 154.594L138.779 130.892C138.483 130.202 139.151 129.254 140.267 128.78L144.865 126.826C145.982 126.352 147.131 126.528 147.427 127.218L157.582 150.92C157.878 151.61 157.211 152.558 156.094 153.032Z" fill="#9F97FF"/>
    <path d="M231.74 0.363974L223.134 6.92493L229.723 15.4936L238.329 8.93262L231.74 0.363974Z" fill="#6FCF97"/>
    <path d="M183.078 68.176C187.193 68.176 190.529 64.8542 190.529 60.7565C190.529 56.6588 187.193 53.337 183.078 53.337C178.963 53.337 175.626 56.6588 175.626 60.7565C175.626 64.8542 178.963 68.176 183.078 68.176Z" fill="#6FCF97"/>
    <path d="M181.166 66.037C180.229 64.8189 179.676 63.3516 179.577 61.8207C179.478 60.2897 179.837 58.7638 180.609 57.436C181.38 56.1082 182.53 55.0381 183.913 54.361C185.295 53.6838 186.848 53.4301 188.376 53.632C189.903 53.8338 191.336 54.482 192.493 55.4947C193.651 56.5075 194.48 57.8392 194.878 59.3214C195.275 60.8037 195.222 62.37 194.725 63.8222C194.228 65.2744 193.31 66.5474 192.087 67.48C190.446 68.7284 188.374 69.2776 186.327 69.0071C184.279 68.7366 182.423 67.6684 181.166 66.037ZM192.998 57.0157C192.143 55.9035 190.976 55.0689 189.644 54.6172C188.313 54.1656 186.876 54.1173 185.517 54.4785C184.158 54.8396 182.937 55.594 182.008 56.6462C181.08 57.6984 180.485 59.0011 180.3 60.3897C180.115 61.7782 180.348 63.1903 180.969 64.4472C181.59 65.7041 182.571 66.7495 183.788 67.4511C185.006 68.1527 186.405 68.4791 187.809 68.3889C189.213 68.2987 190.558 67.7961 191.675 66.9445C193.171 65.8013 194.15 64.1139 194.398 62.2525C194.646 60.3912 194.143 58.5078 192.998 57.0157Z" fill="#3F3D56"/>
    <path d="M232.303 16.0752L225.302 6.97101L234.445 0L241.446 9.10418L232.303 16.0752ZM226.252 7.09649L232.429 15.1296L240.497 8.9787L234.319 0.945615L226.252 7.09649Z" fill="#3F3D56"/>
    <path d="M250.293 60.5507L241.688 67.1116L248.277 75.6803L256.882 69.1193L250.293 60.5507Z" fill="#6FCF97"/>
    <path d="M250.856 76.2619L243.855 67.1577L252.999 60.1867L260 69.2909L250.856 76.2619ZM244.805 67.2832L250.982 75.3163L259.05 69.1654L252.873 61.1323L244.805 67.2832Z" fill="#3F3D56"/>
    <path d="M211.684 193.243H0.338867V193.918H211.684V193.243Z" fill="#3F3D56"/>
    <path d="M36.5786 160.867C30.1478 160.867 23.8615 158.968 18.5145 155.411C13.1675 151.853 8.99996 146.797 6.53901 140.881C4.07805 134.965 3.43415 128.455 4.68874 122.175C5.94332 115.895 9.04004 110.126 13.5873 105.598C18.1345 101.07 23.9281 97.9864 30.2353 96.7371C36.5425 95.4879 43.0801 96.129 49.0214 98.5795C54.9627 101.03 60.0408 105.18 63.6135 110.504C67.1863 115.828 69.0932 122.088 69.0932 128.491C69.0835 137.075 65.6547 145.304 59.5591 151.374C53.4636 157.443 45.199 160.857 36.5786 160.867ZM36.5786 96.7895C30.2818 96.7895 24.1264 98.6488 18.8908 102.132C13.6552 105.616 9.57452 110.567 7.16483 116.359C4.75515 122.152 4.12467 128.526 5.35311 134.676C6.58156 140.825 9.61376 146.474 14.0663 150.908C18.5188 155.341 24.1917 158.36 30.3675 159.584C36.5433 160.807 42.9447 160.179 48.7622 157.78C54.5797 155.38 59.552 151.317 63.0503 146.104C66.5486 140.89 68.4158 134.761 68.4158 128.491C68.4063 120.086 65.049 112.028 59.0804 106.085C53.1118 100.142 45.0194 96.799 36.5786 96.7895Z" fill="#3F3D56"/>
    <path d="M107.17 80.4429C117.181 80.4429 125.297 72.3619 125.297 62.3936C125.297 52.4252 117.181 44.3442 107.17 44.3442C97.159 44.3442 89.0435 52.4252 89.0435 62.3936C89.0435 72.3619 97.159 80.4429 107.17 80.4429Z" fill="#9F97FF"/>
    <path d="M109.838 69.0832L109.819 68.4087C111.079 68.3738 112.19 68.2951 113.025 67.6878C113.262 67.5058 113.456 67.2753 113.595 67.0117C113.734 66.7482 113.815 66.4579 113.831 66.1606C113.846 65.979 113.818 65.7964 113.751 65.6271C113.683 65.4578 113.577 65.3063 113.441 65.1844C112.887 64.7184 111.995 64.8693 111.345 65.166L110.785 65.4219L111.859 57.6009L112.531 57.6925L111.616 64.3453C112.499 64.0867 113.318 64.1981 113.878 64.6694C114.093 64.8564 114.262 65.0905 114.372 65.3533C114.481 65.6161 114.528 65.9005 114.508 66.1843C114.489 66.5838 114.381 66.9741 114.194 67.3279C114.007 67.6817 113.744 67.9905 113.424 68.2325C112.352 69.0131 110.958 69.052 109.838 69.0832Z" fill="#2F2E41"/>
    <path d="M119.497 58.2662H115.849V58.9407H119.497V58.2662Z" fill="#2F2E41"/>
    <path d="M107.982 58.2662H104.334V58.9407H107.982V58.2662Z" fill="#2F2E41"/>
    <path d="M133.107 134.73H90.4314C90.0273 134.73 89.6399 134.57 89.3541 134.285C89.0684 134.001 88.9077 133.615 88.9072 133.213V99.0759C88.9119 94.9379 90.5648 90.9707 93.5034 88.0447C96.4419 85.1187 100.426 83.4728 104.582 83.4681H118.543C118.943 83.4686 119.326 83.6251 119.611 83.9042C119.896 84.1832 120.06 84.5625 120.067 84.9604L134.631 133.188V133.213C134.631 133.615 134.47 134.001 134.184 134.285C133.898 134.57 133.511 134.73 133.107 134.73Z" fill="#2F2E41"/>
    <path d="M104.759 97.2801L109.758 97.3193C110.341 97.3245 110.899 97.56 111.309 97.9742C111.718 98.3884 111.946 98.9474 111.942 99.5285L111.615 141.014C111.609 141.595 111.373 142.15 110.957 142.558C110.541 142.966 109.979 143.192 109.396 143.189L104.397 143.149C103.813 143.144 103.256 142.909 102.846 142.495C102.437 142.08 102.209 141.521 102.213 140.94L102.54 99.455C102.546 98.8738 102.782 98.3185 103.198 97.9107C103.614 97.503 104.175 97.2762 104.759 97.2801Z" fill="#9F97FF"/>
    <path d="M99.7451 95.6092C99.7451 93.6414 100.53 91.7542 101.928 90.3628C103.325 88.9713 105.22 88.1896 107.196 88.1896C109.173 88.1896 111.068 88.9713 112.465 90.3628C113.863 91.7542 114.648 93.6414 114.648 95.6092V112.134H99.7451V95.6092Z" fill="#2F2E41"/>
    <path d="M101.815 53.8925C103.532 52.1335 106.026 51.8311 108.373 52.0225C110.886 52.2275 113.268 53.0588 115.733 53.5212C118.165 53.9773 120.801 54.1816 123.126 53.1714C124.199 52.6915 125.129 51.9428 125.825 50.9983C126.521 50.0538 126.959 48.9458 127.096 47.7824C127.396 45.3393 126.76 42.8735 125.316 40.876C123.724 38.6363 121.462 36.9957 119.112 35.6186C114.044 32.6501 108.394 30.0527 102.465 29.5725C97.1119 29.139 91.4358 30.612 87.6704 34.5926C84.1406 38.3241 82.638 43.5318 82.3256 48.5468C81.9268 54.9475 83.427 61.2686 83.9698 67.6152C84.3922 72.5537 84.2341 78.4824 80.2062 82.0289C76.6435 85.1658 71.2185 85.1284 67.0181 83.4148C62.0254 81.3779 58.5222 76.8055 55.8724 72.3115C55.1979 71.1675 54.5638 70.0004 53.9489 68.8237C53.6469 68.2459 52.7698 68.7569 53.0715 69.3343C55.5513 74.0795 58.4357 78.8192 62.7732 82.1074C66.5658 84.9824 71.6261 86.3673 76.3138 85.1522C78.5866 84.5873 80.6168 83.3099 82.1048 81.5084C83.7114 79.5151 84.5546 77.0626 84.9063 74.5535C85.2828 71.8679 85.1515 69.1617 84.8788 66.4731C84.5505 63.2364 84.0271 60.0233 83.6687 56.7902C83.0582 51.2838 82.9741 45.5691 85.1591 40.3666C86.101 38.0464 87.5646 35.972 89.4372 34.3029C91.4869 32.5824 93.9459 31.4148 96.5788 30.9121C102.323 29.7252 108.162 31.3322 113.362 33.7538C115.986 34.9211 118.498 36.3245 120.866 37.9467C122.965 39.4426 124.92 41.4019 125.729 43.9001C126.425 46.0532 126.367 48.6019 124.978 50.4792C123.493 52.4856 120.92 52.9866 118.561 52.8658C113.715 52.6177 108.832 49.8137 103.957 51.414C102.874 51.7624 101.893 52.3675 101.097 53.1771C100.641 53.6442 101.358 54.3604 101.815 53.8925Z" fill="#2F2E41"/>
  </g>
  <defs>
    <clipPath id="clip0">
      <rect width="260" height="201" fill="white"/>
    </clipPath>
  </defs>
</svg>
