<svg width="484" height="219" viewBox="0 0 484 219" fill="none" xmlns="http://www.w3.org/2000/svg">
<g clip-path="url(#clip0)">
<path d="M437.577 88.1999H422.948V138.916H437.577V88.1999Z" fill="#F2F2F2"/>
<path d="M447.237 129.375L411.659 86.9824L340.242 87.6363L296.919 129.899L297.794 130.463H297.481V218.371H447.142V130.463L447.237 129.375Z" fill="#F2F2F2"/>
<path d="M411.696 87.0728L367.248 139.265V218.371H447.142V129.336L411.696 87.0728Z" fill="#E6E6E6"/>
<path d="M415.634 174.624H399.318V189.068H415.634V174.624Z" fill="#3F3D56"/>
<path d="M415.634 149.623H399.318V163.838H415.634V149.623Z" fill="#3F3D56"/>
<path d="M415.634 174.624H399.318V189.068H415.634V174.624Z" fill="white"/>
<path d="M415.634 149.623H399.318V163.838H415.634V149.623Z" fill="white"/>
<path d="M343.123 170.791H326.807V185.236H343.123V170.791Z" fill="white"/>
<path d="M343.123 145.79H326.807V160.005H343.123V145.79Z" fill="white"/>
<path d="M322.138 88.1999H307.51V138.916H322.138V88.1999Z" fill="#F2F2F2"/>
<path d="M331.799 129.375L296.22 86.9824L224.803 87.6363L181.48 129.899L182.355 130.463H182.042V218.371H331.703V130.463L331.799 129.375Z" fill="#F2F2F2"/>
<path d="M296.257 87.0728L251.809 139.265V218.371H331.703V129.336L296.257 87.0728Z" fill="#E6E6E6"/>
<path d="M300.195 174.624H283.879V189.068H300.195V174.624Z" fill="#3F3D56"/>
<path d="M300.195 149.623H283.879V163.838H300.195V149.623Z" fill="#3F3D56"/>
<path d="M300.195 174.624H283.879V189.068H300.195V174.624Z" fill="white"/>
<path d="M300.195 149.623H283.879V163.838H300.195V149.623Z" fill="white"/>
<path d="M227.684 170.791H211.368V185.236H227.684V170.791Z" fill="white"/>
<path d="M227.684 145.79H211.368V160.005H227.684V145.79Z" fill="white"/>
<path d="M203.936 44.4308H184.389V112.2H203.936V44.4308Z" fill="#F2F2F2"/>
<path d="M216.845 99.4508L169.303 42.8043L73.8721 43.6778L15.9824 100.152L17.1518 100.905H16.7342V218.371H216.717V100.905L216.845 99.4508Z" fill="#F2F2F2"/>
<path d="M169.352 42.9248L109.959 112.666V218.371H216.717V99.3989L169.352 42.9248Z" fill="#E6E6E6"/>
<path d="M174.615 159.914H152.812V179.216H174.615V159.914Z" fill="#3F3D56"/>
<path d="M174.615 126.506H152.812V145.501H174.615V126.506Z" fill="#3F3D56"/>
<path d="M174.615 159.914H152.812V179.216H174.615V159.914Z" fill="white"/>
<path d="M174.615 126.506H152.812V145.501H174.615V126.506Z" fill="white"/>
<path d="M77.7228 154.793H55.9202V174.094H77.7228V154.793Z" fill="white"/>
<path d="M77.7228 121.385H55.9202V140.38H77.7228V121.385Z" fill="white"/>
<path d="M467.552 217.937H0V218.909H467.552V217.937Z" fill="#3F3D56"/>
<path d="M73.6637 200.073C81.4588 200.073 87.778 187.159 87.778 171.229C87.778 155.299 81.4588 142.385 73.6637 142.385C65.8686 142.385 59.5494 155.299 59.5494 171.229C59.5494 187.159 65.8686 200.073 73.6637 200.073Z" fill="#3F3D56"/>
<path d="M74.9671 218.441C69.3142 184.472 74.9102 150.626 74.9674 150.288L76.067 150.474C76.0101 150.81 70.4462 184.479 76.0672 218.258L74.9671 218.441Z" fill="#6C63FF"/>
<path d="M86.09 165.027L73.3269 171.864L73.853 172.849L86.6161 166.012L86.09 165.027Z" fill="#6C63FF"/>
<path d="M60.3828 168.452L59.8564 169.437L72.618 176.278L73.1444 175.293L60.3828 168.452Z" fill="#6C63FF"/>
<path d="M39.7513 183.16C54.9976 183.16 67.3572 157.902 67.3572 126.745C67.3572 95.5883 54.9976 70.3304 39.7513 70.3304C24.5051 70.3304 12.1455 95.5883 12.1455 126.745C12.1455 157.902 24.5051 183.16 39.7513 183.16Z" fill="#36B3CF"/>
<path d="M42.8262 219C31.7845 152.648 42.7148 86.5369 42.8264 85.8769L43.926 86.0635C43.8146 86.7218 32.9165 152.655 43.9263 218.817L42.8262 219Z" fill="#3F3D56"/>
<path d="M64.3074 115.085L39.3436 128.458L39.8697 129.444L64.8335 116.07L64.3074 115.085Z" fill="#3F3D56"/>
<path d="M13.5239 121.784L12.9976 122.769L37.9576 136.15L38.484 135.165L13.5239 121.784Z" fill="#3F3D56"/>
<path d="M105.134 169.99C125.997 169.99 142.91 135.427 142.91 92.7906C142.91 50.1546 125.997 15.5912 105.134 15.5912C84.2702 15.5912 67.3572 50.1546 67.3572 92.7906C67.3572 135.427 84.2702 169.99 105.134 169.99Z" fill="#36B3CF"/>
<path d="M109.544 219C94.4401 128.236 109.392 37.8025 109.544 36.8997L110.644 37.0863C110.491 37.9874 95.5721 128.243 110.644 218.817L109.544 219Z" fill="#3F3D56"/>
<path d="M138.834 77.0156L104.673 95.3162L105.199 96.3013L139.36 78.0007L138.834 77.0156Z" fill="#3F3D56"/>
<path d="M69.1466 86.1833L68.6202 87.1682L102.776 105.478L103.303 104.493L69.1466 86.1833Z" fill="#3F3D56"/>
<path d="M422.482 200.073C430.277 200.073 436.596 187.159 436.596 171.229C436.596 155.299 430.277 142.385 422.482 142.385C414.687 142.385 408.368 155.299 408.368 171.229C408.368 187.159 414.687 200.073 422.482 200.073Z" fill="#3F3D56"/>
<path d="M421.179 218.441C426.831 184.472 421.235 150.626 421.178 150.288L420.079 150.474C420.136 150.81 425.699 184.479 420.078 218.258L421.179 218.441Z" fill="#6C63FF"/>
<path d="M410.056 165.027L409.529 166.012L422.293 172.849L422.819 171.864L410.056 165.027Z" fill="#6C63FF"/>
<path d="M435.763 168.452L423.001 175.293L423.527 176.278L436.289 169.437L435.763 168.452Z" fill="#6C63FF"/>
<path d="M456.394 183.16C471.64 183.16 484 157.902 484 126.745C484 95.5883 471.64 70.3304 456.394 70.3304C441.148 70.3304 428.788 95.5883 428.788 126.745C428.788 157.902 441.148 183.16 456.394 183.16Z" fill="#36B3CF"/>
<path d="M453.319 219C464.361 152.648 453.431 86.5369 453.319 85.8769L452.219 86.0635C452.331 86.7218 463.229 152.655 452.219 218.817L453.319 219Z" fill="#3F3D56"/>
<path d="M431.838 115.085L431.312 116.07L456.276 129.444L456.802 128.459L431.838 115.085Z" fill="#3F3D56"/>
<path d="M482.621 121.784L457.661 135.165L458.188 136.15L483.148 122.769L482.621 121.784Z" fill="#3F3D56"/>
<path d="M391.012 169.99C411.875 169.99 428.788 135.427 428.788 92.7906C428.788 50.1546 411.875 15.5912 391.012 15.5912C370.149 15.5912 353.236 50.1546 353.236 92.7906C353.236 135.427 370.149 169.99 391.012 169.99Z" fill="#36B3CF"/>
<path d="M386.601 219C401.705 128.236 386.754 37.8025 386.601 36.8997L385.501 37.0863C385.654 37.9874 400.573 128.243 385.501 218.817L386.601 219Z" fill="#3F3D56"/>
<path d="M357.312 77.0156L356.786 78.0007L390.947 96.3013L391.473 95.3162L357.312 77.0156Z" fill="#3F3D56"/>
<path d="M426.999 86.1832L392.843 104.493L393.369 105.478L427.525 87.1682L426.999 86.1832Z" fill="#3F3D56"/>
<path d="M285.98 49.2916L290.445 45.7147C286.977 45.3315 285.551 47.2262 284.968 48.7259C282.258 47.5988 279.308 49.0759 279.308 49.0759L288.242 52.3242C287.791 51.1185 287.007 50.0665 285.98 49.2916V49.2916Z" fill="#3F3D56"/>
<path d="M176.847 17.7149L181.312 14.1381C177.843 13.7548 176.418 15.6496 175.835 17.1493C173.125 16.0222 170.175 17.4993 170.175 17.4993L179.108 20.7476C178.658 19.5419 177.873 18.4899 176.847 17.7149V17.7149Z" fill="#3F3D56"/>
<path d="M354.856 3.62689L359.321 0.0500911C355.852 -0.333201 354.427 1.56153 353.843 3.06122C351.133 1.93418 348.183 3.41122 348.183 3.41122L357.117 6.65958C356.666 5.45389 355.882 4.40188 354.856 3.62689V3.62689Z" fill="#3F3D56"/>
<path d="M363.871 212.317C362.684 212.317 361.518 212.631 360.49 213.226C359.447 212.281 358.152 211.659 356.762 211.437C355.373 211.215 353.949 211.401 352.664 211.974C351.378 212.546 350.286 213.48 349.52 214.662C348.755 215.844 348.348 217.224 348.349 218.633H370.637C370.515 216.918 369.75 215.314 368.494 214.142C367.239 212.97 365.587 212.318 363.871 212.317V212.317Z" fill="#3F3D56"/>
<path d="M137.358 212.317C136.171 212.317 135.005 212.631 133.978 213.226C132.934 212.281 131.639 211.659 130.25 211.437C128.861 211.215 127.437 211.401 126.151 211.974C124.866 212.546 123.774 213.48 123.008 214.662C122.242 215.844 121.835 217.224 121.837 218.633H144.124C144.003 216.918 143.237 215.314 141.982 214.142C140.726 212.97 139.074 212.318 137.358 212.317V212.317Z" fill="#3F3D56"/>
<path d="M253.282 212.317C252.095 212.317 250.929 212.631 249.902 213.226C248.858 212.281 247.563 211.659 246.174 211.437C244.785 211.215 243.361 211.401 242.075 211.974C240.79 212.546 239.698 213.48 238.932 214.662C238.166 215.844 237.759 217.224 237.761 218.633H260.048C259.927 216.918 259.161 215.314 257.906 214.142C256.65 212.97 254.998 212.318 253.282 212.317V212.317Z" fill="#3F3D56"/>
<path d="M228.821 196.372H164.52V198.449H174.548V218.185H176.622V198.449H215.681V218.185H217.756V198.449H228.821V196.372Z" fill="#3F3D56"/>
<path d="M228.947 190.156H164.647V192.234H228.947V190.156Z" fill="#3F3D56"/>
<path d="M228.947 184.963H164.647V187.04H228.947V184.963Z" fill="#3F3D56"/>
<path d="M228.947 179.769H164.647V181.847H228.947V179.769Z" fill="#3F3D56"/>
<path d="M329.224 196.372H264.923V198.449H274.951V218.185H277.025V198.449H316.084V218.185H318.158V198.449H329.224V196.372Z" fill="#3F3D56"/>
<path d="M329.35 190.156H265.05V192.234H329.35V190.156Z" fill="#3F3D56"/>
<path d="M329.35 184.963H265.05V187.04H329.35V184.963Z" fill="#3F3D56"/>
<path d="M329.35 179.769H265.05V181.847H329.35V179.769Z" fill="#3F3D56"/>
</g>
<defs>
<clipPath id="clip0">
<rect width="484" height="219" fill="white"/>
</clipPath>
</defs>
</svg>
