<svg width="399" height="217" viewBox="0 0 399 217" fill="none" xmlns="http://www.w3.org/2000/svg">
<g clip-path="url(#clip0)">
<path d="M200.78 217C308.972 217 396.68 211.193 396.68 204.029C396.68 196.865 308.972 191.058 200.78 191.058C92.5882 191.058 4.88113 196.865 4.88113 204.029C4.88113 211.193 92.5882 217 200.78 217Z" fill="#F2F2F2"/>
<path d="M193.272 62.0322C161.355 62.0322 138.438 82.5125 138.438 130.3C138.438 184.459 161.355 198.795 193.272 198.795C225.189 198.795 249.471 183.094 249.471 130.3C249.471 73.8652 225.189 62.0322 193.272 62.0322ZM193.482 180.818C171.375 180.818 159.826 167.847 159.826 130.335C159.826 97.2362 171.848 79.7818 193.955 79.7818C216.061 79.7818 228.083 91.247 228.083 130.335C228.083 166.901 215.588 180.818 193.482 180.818Z" fill="#2F2E41"/>
<path d="M119.326 161.02H106.13V122.154C106.13 120.09 105.31 118.11 103.85 116.651C102.391 115.191 100.411 114.371 98.3474 114.371H95.2552C94.2332 114.371 93.2212 114.572 92.277 114.963C91.3328 115.354 90.4749 115.928 89.7522 116.651C89.0295 117.373 88.4563 118.231 88.0652 119.176C87.6741 120.12 87.4728 121.132 87.4728 122.154V161.02H50.25C49.4843 161.02 48.7315 160.823 48.0648 160.446C47.3981 160.069 46.84 159.526 46.4448 158.87C46.0495 158.215 45.8305 157.468 45.809 156.702C45.7874 155.936 45.9641 155.178 46.3218 154.501L85.7179 79.9256C86.2091 78.9958 86.5068 77.9762 86.5931 76.9281C86.6793 75.8801 86.5524 74.8255 86.2199 73.8279C85.8874 72.8303 85.3562 71.9104 84.6584 71.1238C83.9607 70.3372 83.1108 69.7002 82.16 69.2512L79.8344 68.1528C78.0285 67.2999 75.964 67.1739 74.0679 67.801C72.1718 68.4281 70.5893 69.7602 69.6479 71.5216L21.5991 161.419C20.7809 162.95 20.3528 164.659 20.3528 166.395C20.3528 167.781 20.6258 169.154 21.1561 170.434C21.6865 171.715 22.4638 172.878 23.4437 173.858C24.4236 174.838 25.587 175.616 26.8673 176.146C28.1476 176.677 29.5199 176.95 30.9057 176.95H87.4728V201.526C87.4728 202.751 87.7141 203.964 88.1829 205.096C88.6517 206.228 89.3388 207.257 90.205 208.123C91.0713 208.99 92.0996 209.677 93.2314 210.146C94.3632 210.615 95.5763 210.856 96.8013 210.856H96.8013C98.0263 210.856 99.2394 210.615 100.371 210.146C101.503 209.677 102.531 208.99 103.398 208.123C104.264 207.257 104.951 206.228 105.42 205.096C105.889 203.964 106.13 202.751 106.13 201.526V176.95H119.326C121.438 176.95 123.464 176.11 124.957 174.617C126.451 173.123 127.29 171.097 127.29 168.985C127.29 166.873 126.451 164.847 124.957 163.353C123.464 161.86 121.438 161.02 119.326 161.02Z" fill="#695EE8"/>
<path d="M363.688 161.02H350.492V122.154C350.492 120.09 349.672 118.11 348.212 116.651C346.753 115.191 344.773 114.371 342.709 114.371H339.617C338.595 114.371 337.583 114.572 336.639 114.963C335.695 115.354 334.837 115.928 334.114 116.651C333.392 117.373 332.818 118.231 332.427 119.176C332.036 120.12 331.835 121.132 331.835 122.154V161.02H294.612C293.846 161.02 293.094 160.822 292.427 160.446C291.76 160.069 291.202 159.526 290.807 158.87C290.412 158.215 290.193 157.468 290.171 156.702C290.149 155.936 290.326 155.178 290.684 154.501L330.08 79.9256C330.571 78.9958 330.869 77.9762 330.955 76.9282C331.041 75.8801 330.914 74.8255 330.582 73.8279C330.249 72.8303 329.718 71.9104 329.02 71.1238C328.323 70.3372 327.473 69.7002 326.522 69.2512L324.196 68.1528C322.391 67.2999 320.326 67.1739 318.43 67.801C316.534 68.4281 314.951 69.7602 314.01 71.5216L265.961 161.419C265.143 162.95 264.715 164.659 264.715 166.395C264.715 169.194 265.827 171.879 267.806 173.858C269.785 175.838 272.469 176.95 275.268 176.95H331.835V201.526C331.835 204 332.818 206.374 334.567 208.123C336.317 209.873 338.689 210.856 341.163 210.856C343.637 210.856 346.01 209.873 347.76 208.123C349.509 206.374 350.492 204 350.492 201.526V176.95H363.688C365.8 176.95 367.826 176.11 369.319 174.617C370.813 173.123 371.652 171.097 371.652 168.985C371.652 166.873 370.813 164.847 369.319 163.353C367.826 161.86 365.8 161.02 363.688 161.02Z" fill="#695EE8"/>
<path d="M122.967 156.469H109.77V117.603C109.77 116.581 109.569 115.569 109.178 114.625C108.787 113.68 108.213 112.822 107.491 112.099C106.768 111.377 105.91 110.803 104.966 110.412C104.022 110.021 103.01 109.82 101.988 109.82H98.8956C96.8316 109.82 94.8521 110.64 93.3926 112.099C91.9331 113.559 91.1132 115.539 91.1132 117.603V156.469H53.8904C53.1247 156.469 52.3719 156.271 51.7052 155.895C51.0385 155.518 50.4804 154.975 50.0852 154.319C49.6899 153.663 49.4709 152.916 49.4494 152.151C49.4278 151.385 49.6045 150.627 49.9622 149.95L89.3583 75.3744C89.8495 74.4447 90.1472 73.425 90.2335 72.377C90.3197 71.329 90.1928 70.2743 89.8603 69.2767C89.5278 68.2791 88.9966 67.3593 88.2988 66.5727C87.6011 65.786 86.7512 65.149 85.8004 64.7L83.4748 63.6016C81.6689 62.7487 79.6044 62.6228 77.7083 63.2498C75.8122 63.8769 74.2297 65.209 73.2883 66.9704L25.2395 156.868C24.4213 158.399 23.9932 160.108 23.9932 161.844V161.844C23.9932 164.643 25.1051 167.328 27.0841 169.307C29.0632 171.286 31.7473 172.398 34.5461 172.398H91.1132V196.975C91.1132 198.2 91.3545 199.413 91.8233 200.545C92.2921 201.677 92.9792 202.706 93.8454 203.572C94.7117 204.438 95.74 205.126 96.8718 205.595C98.0036 206.063 99.2166 206.305 100.442 206.305H100.442C102.916 206.305 105.289 205.322 107.038 203.572C108.787 201.822 109.77 199.449 109.77 196.975V172.398H122.967C124.012 172.398 125.048 172.192 126.014 171.792C126.98 171.392 127.858 170.805 128.598 170.066C129.337 169.326 129.924 168.448 130.324 167.482C130.724 166.515 130.93 165.48 130.93 164.434V164.434C130.93 163.388 130.724 162.352 130.324 161.386C129.924 160.42 129.337 159.542 128.598 158.802C127.858 158.062 126.98 157.476 126.014 157.076C125.048 156.675 124.012 156.469 122.967 156.469V156.469Z" stroke="#3F3D56" stroke-miterlimit="10"/>
<path d="M370.514 156.469H357.318V117.603C357.318 115.539 356.498 113.559 355.038 112.099C353.579 110.64 351.599 109.82 349.535 109.82H346.443C345.421 109.82 344.409 110.021 343.465 110.412C342.521 110.803 341.663 111.377 340.94 112.099C340.217 112.822 339.644 113.68 339.253 114.625C338.862 115.569 338.661 116.581 338.661 117.603V156.469H301.438C300.672 156.469 299.919 156.271 299.253 155.895C298.586 155.518 298.028 154.975 297.633 154.319C297.237 153.663 297.018 152.916 296.997 152.151C296.975 151.385 297.152 150.627 297.51 149.95L336.906 75.3744C337.397 74.4447 337.695 73.425 337.781 72.377C337.867 71.329 337.74 70.2743 337.408 69.2767C337.075 68.2791 336.544 67.3593 335.846 66.5727C335.148 65.786 334.299 65.149 333.348 64.7L331.022 63.6016C329.216 62.7487 327.152 62.6228 325.256 63.2498C323.36 63.8769 321.777 65.209 320.836 66.9704L272.787 156.868C271.969 158.399 271.541 160.108 271.541 161.844C271.541 164.643 272.652 167.328 274.631 169.307C276.611 171.286 279.295 172.398 282.093 172.398H338.661V196.975C338.661 199.449 339.643 201.822 341.393 203.572C343.142 205.322 345.515 206.305 347.989 206.305V206.305C350.463 206.305 352.836 205.322 354.585 203.572C356.335 201.822 357.318 199.449 357.318 196.975V172.398H370.514C371.56 172.398 372.595 172.192 373.561 171.792C374.528 171.392 375.406 170.805 376.145 170.066C376.884 169.326 377.471 168.448 377.871 167.482C378.271 166.515 378.477 165.48 378.477 164.434V164.434C378.477 162.322 377.638 160.296 376.145 158.802C374.652 157.308 372.626 156.469 370.514 156.469V156.469Z" stroke="#3F3D56" stroke-miterlimit="10"/>
<path d="M200.553 57.9361C168.635 57.9361 145.719 78.4164 145.719 126.204C145.719 180.363 168.635 194.699 200.553 194.699C232.47 194.699 256.752 178.998 256.752 126.204C256.752 69.7692 232.47 57.9361 200.553 57.9361ZM200.763 176.722C178.656 176.722 167.107 163.751 167.107 126.239C167.107 93.1402 179.129 75.6857 201.235 75.6857C223.342 75.6857 235.364 87.1509 235.364 126.239C235.364 162.805 222.869 176.722 200.763 176.722V176.722Z" stroke="#3F3D56" stroke-miterlimit="10"/>
<path d="M373.922 155.833C375.047 156.242 376.251 156.384 377.441 156.248C378.63 156.112 379.771 155.701 380.775 155.049C381.779 154.396 382.617 153.52 383.224 152.488C383.831 151.456 384.19 150.297 384.273 149.103C384.356 147.909 384.161 146.711 383.702 145.606C383.243 144.5 382.534 143.516 381.63 142.731C380.726 141.946 379.653 141.381 378.494 141.082C377.335 140.783 376.122 140.757 374.951 141.007L375.145 144.986L373.262 141.576C371.415 142.444 369.988 144.01 369.295 145.93C369.049 146.603 368.899 147.307 368.85 148.021C368.731 149.698 369.162 151.367 370.077 152.777C370.993 154.186 372.342 155.259 373.922 155.833Z" fill="#828282"/>
<path d="M383.235 201.98C382.57 198.596 385.45 195.597 388.293 193.647C391.137 191.697 394.46 189.781 395.43 186.472C396.825 181.716 392.671 177.361 389.438 173.605C387.039 170.818 384.98 167.756 383.302 164.484C382.629 163.172 382.011 161.8 381.834 160.336C381.579 158.228 382.256 156.13 382.938 154.12C385.211 147.421 387.641 140.779 390.228 134.192" stroke="#3F3D56" stroke-miterlimit="10"/>
<path d="M374.24 154.808C375.365 155.217 376.57 155.359 377.759 155.223C378.948 155.087 380.09 154.677 381.093 154.025C382.097 153.372 382.935 152.495 383.542 151.463C384.149 150.432 384.509 149.273 384.592 148.079C384.674 146.884 384.479 145.687 384.02 144.581C383.562 143.475 382.852 142.491 381.949 141.706C381.045 140.921 379.971 140.357 378.812 140.058C377.653 139.759 376.44 139.733 375.269 139.983L375.463 143.961L373.581 140.552C371.733 141.42 370.306 142.986 369.613 144.906C369.367 145.578 369.217 146.282 369.169 146.997C369.05 148.673 369.481 150.343 370.396 151.752C371.311 153.162 372.661 154.235 374.24 154.808Z" fill="#6FCF97" stroke="#3F3D56" stroke-miterlimit="10"/>
<path d="M382.29 132.818C382.732 131.6 383.473 130.512 384.445 129.656C385.417 128.799 386.589 128.201 387.853 127.916L388.49 131.699L389.67 127.726C391.308 127.751 392.896 128.295 394.205 129.281C395.513 130.267 396.475 131.643 396.95 133.211C397.426 134.779 397.391 136.458 396.851 138.004C396.31 139.551 395.292 140.886 393.944 141.817C392.595 142.748 390.986 143.225 389.348 143.182C387.71 143.138 386.129 142.574 384.832 141.573C383.535 140.572 382.59 139.184 382.133 137.61C381.676 136.037 381.731 134.359 382.29 132.818H382.29Z" fill="#6FCF97"/>
<path d="M382.715 131.453C383.156 130.234 383.897 129.147 384.869 128.29C385.842 127.433 387.014 126.835 388.278 126.551L388.914 130.333L390.094 126.36C391.732 126.385 393.32 126.929 394.629 127.915C395.938 128.901 396.899 130.277 397.375 131.845C397.851 133.413 397.816 135.092 397.275 136.639C396.735 138.185 395.717 139.521 394.368 140.451C393.02 141.382 391.41 141.86 389.773 141.816C388.135 141.772 386.553 141.209 385.257 140.207C383.96 139.206 383.015 137.818 382.558 136.245C382.101 134.671 382.156 132.993 382.715 131.453H382.715Z" stroke="#3F3D56" stroke-miterlimit="10"/>
<path d="M388.081 173.682C389.865 174.329 391.825 174.297 393.587 173.592C395.349 172.887 396.79 171.558 397.636 169.858C398.481 168.159 398.672 166.208 398.171 164.377C397.671 162.546 396.514 160.963 394.922 159.93L394.015 162.983L393.372 159.156C393.366 159.153 393.359 159.15 393.352 159.149C392.398 158.802 391.385 158.646 390.371 158.691C389.356 158.736 388.361 158.98 387.441 159.41C386.521 159.84 385.695 160.447 385.009 161.197C384.324 161.946 383.793 162.823 383.447 163.777C383.101 164.732 382.946 165.746 382.992 166.76C383.037 167.775 383.282 168.77 383.712 169.69C384.143 170.61 384.75 171.436 385.5 172.12C386.249 172.805 387.127 173.336 388.081 173.682H388.081Z" fill="#6FCF97"/>
<path d="M388.449 172.298C390.233 172.945 392.193 172.913 393.955 172.208C395.717 171.503 397.158 170.174 398.004 168.475C398.849 166.775 399.039 164.824 398.539 162.993C398.038 161.162 396.882 159.58 395.289 158.547L394.383 161.6L393.74 157.773C393.733 157.77 393.727 157.767 393.72 157.765C392.766 157.418 391.753 157.263 390.738 157.308C389.724 157.353 388.728 157.597 387.809 158.027C386.889 158.457 386.062 159.064 385.377 159.813C384.692 160.562 384.161 161.439 383.815 162.394C383.469 163.349 383.314 164.362 383.359 165.377C383.405 166.391 383.65 167.387 384.08 168.306C384.51 169.226 385.118 170.052 385.867 170.737C386.617 171.422 387.494 171.952 388.449 172.298H388.449Z" stroke="#3F3D56" stroke-miterlimit="10"/>
<path d="M380.035 186.519C380.341 188.265 381.239 189.852 382.577 191.014C383.915 192.177 385.612 192.844 387.383 192.904C389.154 192.963 390.892 192.412 392.305 191.342C393.719 190.272 394.721 188.749 395.144 187.028C395.568 185.307 395.387 183.492 394.631 181.889C393.876 180.285 392.592 178.99 390.996 178.221C389.399 177.452 387.587 177.255 385.862 177.664C384.137 178.072 382.606 179.062 381.524 180.466L384.968 185.65L380.262 182.898C379.898 184.07 379.819 185.311 380.035 186.519Z" fill="#6FCF97"/>
<path d="M380.353 185.495C380.66 187.24 381.557 188.828 382.895 189.99C384.233 191.153 385.93 191.82 387.701 191.879C389.473 191.939 391.211 191.388 392.624 190.318C394.037 189.248 395.039 187.725 395.463 186.004C395.886 184.282 395.705 182.468 394.95 180.864C394.194 179.261 392.911 177.966 391.314 177.197C389.717 176.427 387.905 176.231 386.18 176.639C384.456 177.048 382.924 178.037 381.842 179.441L385.286 184.625L380.581 181.874C380.216 183.045 380.138 184.287 380.353 185.495V185.495Z" stroke="#3F3D56" stroke-miterlimit="10"/>
<path d="M3.34513 174.664C4.08427 174.932 4.87572 175.026 5.6571 174.937C6.43848 174.847 7.18843 174.578 7.84783 174.149C8.50724 173.72 9.05807 173.144 9.45693 172.466C9.85578 171.788 10.0917 171.027 10.1462 170.242C10.2007 169.458 10.0722 168.671 9.77086 167.944C9.46952 167.218 9.00357 166.571 8.40973 166.055C7.8159 165.54 7.11041 165.169 6.34888 164.972C5.58734 164.776 4.79058 164.759 4.0214 164.923L4.14851 167.537L2.91188 165.297C1.69821 165.867 0.760593 166.896 0.305083 168.158C0.143312 168.599 0.0449678 169.062 0.0129833 169.531C-0.065073 170.633 0.217991 171.73 0.819278 172.656C1.42057 173.582 2.30731 174.287 3.34513 174.664Z" fill="#828282"/>
<path d="M9.46397 204.984C9.02744 202.76 10.919 200.789 12.7874 199.508C14.6559 198.227 16.839 196.968 17.4766 194.794C18.3928 191.67 15.6636 188.808 13.5395 186.34C11.9635 184.509 10.6102 182.497 9.50774 180.348C9.02845 179.503 8.70199 178.581 8.54341 177.623C8.37592 176.238 8.82082 174.859 9.26904 173.538C10.7622 169.137 12.3586 164.773 14.0583 160.446" stroke="#3F3D56" stroke-miterlimit="10"/>
<path d="M3.55425 173.991C4.29339 174.259 5.08484 174.353 5.86622 174.263C6.6476 174.174 7.39755 173.904 8.05695 173.476C8.71635 173.047 9.26719 172.471 9.66604 171.793C10.0649 171.115 10.3009 170.354 10.3553 169.569C10.4098 168.784 10.2813 167.998 9.97998 167.271C9.67863 166.545 9.21268 165.898 8.61885 165.382C8.02501 164.867 7.31953 164.496 6.558 164.299C5.79647 164.103 4.99971 164.086 4.23052 164.25L4.35763 166.864L3.12101 164.624C1.90733 165.194 0.969715 166.223 0.514205 167.485C0.352436 167.926 0.254093 168.389 0.222107 168.858C0.144045 169.96 0.427107 171.057 1.0284 171.983C1.62968 172.909 2.51643 173.614 3.55425 173.991Z" fill="#6FCF97" stroke="#3F3D56" stroke-miterlimit="10"/>
<path d="M8.84329 159.543C9.13336 158.742 9.62021 158.028 10.259 157.465C10.8977 156.902 11.6679 156.509 12.4984 156.322L12.9165 158.807L13.6917 156.197C14.768 156.213 15.8114 156.571 16.6712 157.219C17.531 157.866 18.1628 158.771 18.4753 159.801C18.7878 160.831 18.7649 161.934 18.4098 162.95C18.0547 163.967 17.3859 164.844 16.4999 165.455C15.6139 166.067 14.5566 166.38 13.4805 166.352C12.4045 166.323 11.3654 165.953 10.5134 165.295C9.66136 164.637 9.04042 163.725 8.74023 162.691C8.44004 161.658 8.47613 160.555 8.84329 159.543Z" fill="#6FCF97"/>
<path d="M9.12215 158.646C9.41222 157.845 9.89906 157.131 10.5378 156.568C11.1766 156.005 11.9467 155.612 12.7772 155.425L13.1954 157.91L13.9705 155.3C15.0469 155.316 16.0902 155.674 16.9501 156.321C17.8099 156.969 18.4417 157.873 18.7542 158.903C19.0667 159.934 19.0437 161.037 18.6887 162.053C18.3336 163.069 17.6648 163.946 16.7788 164.558C15.8928 165.169 14.8354 165.483 13.7594 165.454C12.6833 165.426 11.6443 165.055 10.7923 164.398C9.94022 163.74 9.31928 162.828 9.01909 161.794C8.7189 160.76 8.75499 159.658 9.12215 158.646V158.646Z" stroke="#3F3D56" stroke-miterlimit="10"/>
<path d="M12.648 186.391C13.8202 186.816 15.1079 186.795 16.2656 186.332C17.4233 185.869 18.3701 184.995 18.9256 183.879C19.481 182.762 19.6062 181.48 19.2773 180.277C18.9484 179.074 18.1884 178.035 17.1422 177.356L16.5466 179.362L16.1242 176.847C16.12 176.845 16.1157 176.844 16.1113 176.842C15.4843 176.614 14.8185 176.512 14.152 176.542C13.4855 176.571 12.8313 176.731 12.2268 177.014C11.6223 177.296 11.0794 177.695 10.6291 178.187C10.1788 178.68 9.82996 179.256 9.60244 179.883C9.37493 180.511 9.27324 181.177 9.30318 181.843C9.33313 182.51 9.49412 183.164 9.77696 183.768C10.0598 184.373 10.4589 184.915 10.9516 185.365C11.4442 185.815 12.0207 186.164 12.648 186.391Z" fill="#6FCF97"/>
<path d="M12.8897 185.482C14.0619 185.907 15.3496 185.886 16.5073 185.423C17.665 184.96 18.6118 184.086 19.1672 182.97C19.7226 181.853 19.8478 180.571 19.519 179.368C19.1901 178.165 18.4301 177.126 17.3839 176.447L16.7882 178.453L16.3659 175.938C16.3617 175.936 16.3574 175.935 16.3529 175.933C15.7261 175.706 15.0606 175.604 14.3944 175.634C13.7282 175.664 13.0744 175.825 12.4704 176.107C11.2504 176.678 10.3071 177.71 9.84779 178.976C9.38853 180.242 9.45101 181.639 10.0215 182.859C10.5919 184.079 11.6237 185.023 12.8897 185.482V185.482Z" stroke="#3F3D56" stroke-miterlimit="10"/>
<path d="M7.36135 194.825C7.5629 195.972 8.15266 197.015 9.03171 197.779C9.91077 198.543 11.0257 198.981 12.1894 199.02C13.3532 199.059 14.495 198.697 15.4235 197.994C16.3519 197.291 17.0105 196.29 17.2887 195.16C17.5669 194.029 17.4479 192.837 16.9517 191.783C16.4554 190.73 15.612 189.879 14.563 189.373C13.5139 188.868 12.323 188.739 11.19 189.007C10.0569 189.276 9.05066 189.926 8.33992 190.848L10.6024 194.254L7.51099 192.446C7.27129 193.216 7.21997 194.032 7.36135 194.825Z" fill="#6FCF97"/>
<path d="M7.57049 194.152C7.77204 195.299 8.36179 196.342 9.24085 197.106C10.1199 197.87 11.2348 198.308 12.3986 198.347C13.5623 198.386 14.7042 198.024 15.6326 197.321C16.561 196.618 17.2196 195.617 17.4978 194.487C17.7761 193.356 17.6571 192.164 17.1608 191.11C16.6645 190.057 15.8211 189.206 14.7721 188.7C13.7231 188.195 12.5322 188.066 11.3991 188.334C10.2661 188.603 9.2598 189.253 8.54906 190.175L10.8116 193.581L7.72012 191.773C7.48043 192.543 7.42911 193.359 7.57049 194.152V194.152Z" stroke="#3F3D56" stroke-miterlimit="10"/>
<path d="M178.61 126.7C182.097 126.7 184.924 123.042 184.924 118.529C184.924 114.016 182.097 110.357 178.61 110.357C175.124 110.357 172.297 114.016 172.297 118.529C172.297 123.042 175.124 126.7 178.61 126.7Z" fill="#2F2E41"/>
<path d="M212.962 126.886C216.449 126.886 219.276 123.227 219.276 118.714C219.276 114.201 216.449 110.543 212.962 110.543C209.476 110.543 206.649 114.201 206.649 118.714C206.649 123.227 209.476 126.886 212.962 126.886Z" fill="#2F2E41"/>
<path d="M208.134 142.857C208.134 146.549 202.98 149.543 196.622 149.543C190.264 149.543 185.109 146.549 185.109 142.857C185.109 139.659 188.975 136.985 194.141 136.331C194.964 136.223 195.792 136.169 196.622 136.171C198.012 136.167 199.398 136.316 200.755 136.617C205.071 137.579 208.134 140.012 208.134 142.857Z" fill="#2F2E41"/>
<path d="M180.096 124.843C183.583 124.843 186.409 121.184 186.409 116.671C186.409 112.158 183.583 108.5 180.096 108.5C176.609 108.5 173.782 112.158 173.782 116.671C173.782 121.184 176.609 124.843 180.096 124.843Z" stroke="#3F3D56" stroke-miterlimit="10"/>
<path d="M214.448 125.029C217.935 125.029 220.761 121.37 220.761 116.857C220.761 112.344 217.935 108.686 214.448 108.686C210.961 108.686 208.134 112.344 208.134 116.857C208.134 121.37 210.961 125.029 214.448 125.029Z" stroke="#3F3D56" stroke-miterlimit="10"/>
<path d="M198.107 147.686C204.466 147.686 209.62 144.692 209.62 141C209.62 137.308 204.466 134.314 198.107 134.314C191.749 134.314 186.595 137.308 186.595 141C186.595 144.692 191.749 147.686 198.107 147.686Z" stroke="#3F3D56" stroke-miterlimit="10"/>
<path d="M200.893 137.174C200.896 137.641 200.72 138.092 200.402 138.434C200.252 138.598 200.07 138.729 199.867 138.819C199.663 138.909 199.444 138.956 199.221 138.957H195.508C195.05 138.941 194.617 138.745 194.304 138.411C193.991 138.077 193.823 137.632 193.837 137.174C193.835 136.812 193.941 136.458 194.141 136.156C194.963 136.04 195.792 135.983 196.622 135.986C198.014 135.981 199.401 136.141 200.755 136.461C200.847 136.688 200.894 136.93 200.893 137.174Z" fill="white"/>
<path d="M180.096 116.3C181.121 116.3 181.953 115.469 181.953 114.443C181.953 113.417 181.121 112.586 180.096 112.586C179.07 112.586 178.239 113.417 178.239 114.443C178.239 115.469 179.07 116.3 180.096 116.3Z" fill="white"/>
<path d="M214.633 116.3C215.659 116.3 216.49 115.469 216.49 114.443C216.49 113.417 215.659 112.586 214.633 112.586C213.608 112.586 212.777 113.417 212.777 114.443C212.777 115.469 213.608 116.3 214.633 116.3Z" fill="white"/>
<path opacity="0.3" d="M216.49 133.757C217.516 133.757 218.347 132.926 218.347 131.9C218.347 130.874 217.516 130.043 216.49 130.043C215.465 130.043 214.633 130.874 214.633 131.9C214.633 132.926 215.465 133.757 216.49 133.757Z" fill="#6C63FF"/>
<path opacity="0.3" d="M171.183 133.757C172.208 133.757 173.04 132.926 173.04 131.9C173.04 130.874 172.208 130.043 171.183 130.043C170.157 130.043 169.326 130.874 169.326 131.9C169.326 132.926 170.157 133.757 171.183 133.757Z" fill="#6C63FF"/>
</g>
<defs>
<clipPath id="clip0">
<rect width="399" height="217" fill="white"/>
</clipPath>
</defs>
</svg>
