<svg
    width="37"
    height="32"
    viewBox="0 0 37 39"
    fill="none"
    xmlns="http://www.w3.org/2000/svg"
  >
    <path
      d="M27.7017 30.2616H27.6205V21.963C27.6205 20.9768 26.8182 20.1744 25.8319 20.1744H25.0987V17.5714C25.0987 16.9209 24.5695 16.3917 23.919 16.3917H23.8378V15.7016C23.8378 15.3864 23.5823 15.1308 23.267 15.1308C22.9517 15.1308 22.6962 15.3864 22.6962 15.7016V16.3917H22.615C21.9644 16.3917 21.4352 16.9209 21.4352 17.5714V20.1744H20.0551V16.3105C20.0551 15.66 19.5259 15.1308 18.8753 15.1308H18.7942V14.4408C18.7942 14.1255 18.5387 13.8699 18.2234 13.8699C17.9081 13.8699 17.6525 14.1255 17.6525 14.4408V15.1308H17.5714C16.9209 15.1308 16.3917 15.66 16.3917 16.3105V20.1744H15.0115V17.5714C15.0115 16.9209 14.4823 16.3917 13.8318 16.3917H13.7507V15.7016C13.7507 15.3864 13.4952 15.1308 13.1798 15.1308C12.8645 15.1308 12.609 15.3864 12.609 15.7016V16.3917H12.5279C11.8774 16.3917 11.3482 16.9209 11.3482 17.5714V20.1744H10.6149C9.62867 20.1744 8.82631 20.9768 8.82631 21.963V30.2616H8.74517C8.09466 30.2616 7.56546 30.7908 7.56546 31.4413V33.3542C7.56546 33.6694 7.82096 33.925 8.13629 33.925H28.3106C28.6259 33.925 28.8814 33.6694 28.8814 33.3542V31.4413C28.8814 30.7908 28.3522 30.2616 27.7017 30.2616ZM22.5769 17.5714C22.5769 17.5504 22.594 17.5334 22.615 17.5334H23.919C23.9399 17.5334 23.957 17.5504 23.957 17.5714V20.1744H22.5769V17.5714ZM17.5334 16.3105C17.5334 16.2895 17.5505 16.2724 17.5714 16.2724H18.8754C18.8963 16.2724 18.9135 16.2895 18.9135 16.3105V20.1744H17.5334V16.3105ZM12.4897 17.5714C12.4897 17.5504 12.5069 17.5334 12.5278 17.5334H13.8318C13.8527 17.5334 13.8699 17.5504 13.8699 17.5714V20.1744H12.4897V17.5714ZM9.96789 21.963C9.96789 21.6063 10.2581 21.3161 10.6148 21.3161H25.8319C26.1886 21.3161 26.4789 21.6063 26.4789 21.963V23.267C26.4789 24.169 25.745 24.9028 24.8431 24.9028C23.9411 24.9028 23.2074 24.169 23.2074 23.267C23.2074 22.9518 22.9519 22.6962 22.6366 22.6962C22.3212 22.6962 22.0657 22.9518 22.0657 23.267C22.0657 24.169 21.3319 24.9028 20.43 24.9028C19.528 24.9028 18.7943 24.169 18.7943 23.267C18.7943 22.9518 18.5388 22.6962 18.2235 22.6962C17.9081 22.6962 17.6526 22.9518 17.6526 23.267C17.6526 24.169 16.9188 24.9028 16.0169 24.9028C15.115 24.9028 14.3812 24.169 14.3812 23.267C14.3812 22.9518 14.1257 22.6962 13.8103 22.6962C13.495 22.6962 13.2395 22.9518 13.2395 23.267C13.2395 24.169 12.5057 24.9028 11.6038 24.9028C10.7019 24.9028 9.96804 24.169 9.96804 23.267V21.963H9.96789ZM9.96789 28.8815H11.9189C12.2342 28.8815 12.4897 28.6259 12.4897 28.3106C12.4897 27.9954 12.2342 27.7398 11.9189 27.7398H9.96789V25.5097C10.4271 25.8456 10.9925 26.0444 11.6037 26.0444C12.5023 26.0444 13.3022 25.6151 13.8102 24.9511C14.3181 25.6151 15.1181 26.0444 16.0168 26.0444C16.9154 26.0444 17.7153 25.6151 18.2233 24.9511C18.7313 25.6151 19.5312 26.0444 20.4298 26.0444C21.3285 26.0444 22.1285 25.6151 22.6364 24.9511C23.1444 25.6151 23.9443 26.0444 24.8429 26.0444C25.4541 26.0444 26.0195 25.8456 26.4787 25.5097V27.7398H24.5277C24.2124 27.7398 23.9569 27.9954 23.9569 28.3106C23.9569 28.6259 24.2124 28.8815 24.5277 28.8815H26.4787V30.2616H9.96789V28.8815ZM27.7397 32.7833H8.70704V31.4413C8.70704 31.4203 8.72417 31.4032 8.7451 31.4032H27.7017C27.7226 31.4032 27.7397 31.4203 27.7397 31.4413V32.7833Z"
      fill="#36B3CF"
    />
    <path
      d="M33.3543 2.52177H28.8814V1.83175C28.8814 0.82169 28.0597 0 27.0497 0C26.0397 0 25.218 0.82169 25.218 1.83175V2.52177H11.2288V1.83175C11.2288 0.82169 10.4071 0 9.39707 0C8.38701 0 7.56539 0.82169 7.56539 1.83175V2.52177H3.09253C1.38734 2.52177 0 3.90912 0 5.6143V35.876C0 37.5813 1.38727 38.9686 3.09253 38.9686H6.99456C7.30989 38.9686 7.56539 38.713 7.56539 38.3977C7.56539 38.0825 7.30989 37.8269 6.99456 37.8269H3.09253C2.01678 37.8269 1.14166 36.9518 1.14166 35.876V35.7516C1.6742 36.1858 2.35342 36.4468 3.09253 36.4468H33.3543C34.0934 36.4468 34.7725 36.1858 35.3051 35.7516V35.876C35.3051 36.9518 34.43 37.8269 33.3543 37.8269H9.27788C8.96255 37.8269 8.70705 38.0825 8.70705 38.3977C8.70705 38.713 8.96255 38.9686 9.27788 38.9686H33.3543C35.0594 38.9686 36.4468 37.5813 36.4468 35.876V5.61438C36.4468 3.90912 35.0594 2.52177 33.3543 2.52177ZM26.3596 1.83175C26.3596 1.4512 26.6692 1.14166 27.0496 1.14166C27.4301 1.14166 27.7396 1.4512 27.7396 1.83175V5.61445C27.7396 5.99493 27.4301 6.30455 27.0496 6.30455C26.6692 6.30455 26.3596 5.995 26.3596 5.61445V1.83175ZM8.70705 1.83175C8.70705 1.4512 9.01659 1.14166 9.39707 1.14166C9.77755 1.14166 10.0871 1.4512 10.0871 1.83175V5.61445C10.0871 5.99493 9.77755 6.30455 9.39707 6.30455C9.01659 6.30455 8.70705 5.995 8.70705 5.61445V1.83175ZM3.09253 3.66343H7.56539V5.04355H6.8753C6.55997 5.04355 6.30447 5.29912 6.30447 5.61438C6.30447 5.92963 6.55997 6.1852 6.8753 6.1852H7.65688C7.89739 6.91648 8.58626 7.44613 9.39707 7.44613C10.2078 7.44613 10.8968 6.91648 11.1372 6.1852H11.9188C12.2342 6.1852 12.4897 5.92963 12.4897 5.61438C12.4897 5.29912 12.2342 5.04355 11.9188 5.04355H11.2288V3.66343H25.218V5.04355H24.5279C24.2125 5.04355 23.957 5.29912 23.957 5.61438C23.957 5.92963 24.2125 6.1852 24.5279 6.1852H25.3095C25.55 6.91648 26.2389 7.44613 27.0496 7.44613C27.8604 7.44613 28.5493 6.91648 28.7897 6.1852H29.5715C29.8868 6.1852 30.1423 5.92963 30.1423 5.61438C30.1423 5.29912 29.8868 5.04355 29.5715 5.04355H28.8815V3.66343H33.3543C34.4301 3.66343 35.3052 4.53863 35.3052 5.6143V8.82624H28.1914C27.8761 8.82624 27.6206 9.08182 27.6206 9.39707C27.6206 9.71232 27.8761 9.9679 28.1914 9.9679H35.3052V11.3481H1.14166V9.96798H25.908C26.2233 9.96798 26.4788 9.7124 26.4788 9.39715C26.4788 9.0819 26.2233 8.82632 25.908 8.82632H1.14166V5.61438C1.14166 4.53863 2.01678 3.66343 3.09253 3.66343ZM33.3543 35.3051H3.09253C2.01678 35.3051 1.14166 34.4299 1.14166 33.3543V12.4898H35.305V33.3543C35.3051 34.43 34.43 35.3051 33.3543 35.3051Z"
      fill="#36B3CF"
    />
  </svg>