<svg
    width="40"
    height="32"
    viewBox="0 0 40 41"
    fill="none"
    xmlns="http://www.w3.org/2000/svg"
  >
    <path
      d="M15.2401 25.9082L16.3842 26.5758C16.592 26.2043 16.8924 25.8956 17.2547 25.6808C17.6171 25.466 18.0286 25.3529 18.4475 25.3529C18.8665 25.3529 19.278 25.466 19.6404 25.6808C20.0027 25.8956 20.303 26.2043 20.5109 26.5758L21.655 25.9082C21.3319 25.3307 20.865 24.8507 20.3018 24.5169C19.7385 24.183 19.0988 24.0072 18.4475 24.0072C17.7963 24.0072 17.1566 24.183 16.5933 24.5169C16.03 24.8507 15.5632 25.3307 15.2401 25.9082Z"
      fill="#36B3CF"
    />
    <path
      d="M6.91505 32.2092L6.2613 31.0408C5.69585 31.3708 5.22587 31.8475 4.89898 32.4228C4.5721 32.9981 4.39993 33.6514 4.39993 34.3165C4.39993 34.9816 4.5721 35.6349 4.89898 36.2102C5.22587 36.7854 5.69585 37.2622 6.2613 37.5922L6.91505 36.4237C6.5513 36.2115 6.24896 35.9048 6.03867 35.5347C5.82839 35.1646 5.71763 34.7444 5.71763 34.3165C5.71763 33.8886 5.82839 33.4684 6.03867 33.0983C6.24896 32.7282 6.5513 32.4215 6.91505 32.2092Z"
      fill="#36B3CF"
    />
    <path
      d="M36.2366 0H15.8121C14.9387 0.00100178 14.1014 0.355782 13.4838 0.986505C12.8662 1.61723 12.5189 2.47238 12.5179 3.36436V19.2336C11.5697 19.6287 10.7532 20.2949 10.1666 21.1522C9.50691 20.9027 8.80007 20.8105 8.10015 20.8828C7.40023 20.9552 6.7258 21.1901 6.12845 21.5696C5.5311 21.9491 5.02667 22.4631 4.65377 23.0723C4.28086 23.6815 4.04936 24.3698 3.97698 25.0844C3.28038 25.2923 2.64166 25.6652 2.11273 26.1727C1.5838 26.6802 1.17959 27.308 0.932972 28.0051C0.686352 28.7022 0.604278 29.4488 0.693422 30.1844C0.782566 30.92 1.04041 31.6237 1.446 32.2383C0.774509 32.8856 0.308775 33.7239 0.109103 34.6446C-0.0905694 35.5653 -0.0149823 36.5261 0.326076 37.4024C0.667135 38.2788 1.25796 39.0303 2.02203 39.5599C2.78611 40.0894 3.68825 40.3724 4.61163 40.3723H24.3772C25.3011 40.3737 26.204 40.0914 26.9688 39.5621C27.7337 39.0328 28.3251 38.281 28.6663 37.4042C29.0075 36.5274 29.0829 35.5661 28.8825 34.6451C28.6821 33.724 28.2153 32.8857 27.5426 32.239C28.0255 31.5072 28.2975 30.6517 28.3276 29.7698C28.3499 29.1147 28.2381 28.4647 28.0021 27.8605C27.8672 27.515 27.4504 27.4058 27.1312 27.5945C26.8207 27.7781 26.7211 28.1755 26.8356 28.5175C26.9917 28.984 27.0464 29.4823 26.9924 29.9775C26.9148 30.6899 26.6164 31.3584 26.1406 31.8854C26.0767 31.9561 26.0283 32.04 25.9988 32.1314C25.9693 32.2228 25.9594 32.3196 25.9697 32.4153C25.98 32.5109 26.0102 32.6032 26.0584 32.6859C26.1066 32.7686 26.1715 32.8398 26.249 32.8947C26.6798 33.2005 27.0342 33.6055 27.2834 34.077C27.5512 34.5897 27.6845 35.1645 27.6702 35.7454C27.656 36.3263 27.4947 36.8935 27.2021 37.3919C26.9095 37.8902 26.4955 38.3027 26.0005 38.5892C25.5054 38.8756 24.9462 39.0263 24.3772 39.0266H18.4033L18.3016 38.8881C17.9337 38.3828 17.7554 37.7595 17.7991 37.1314C17.8428 36.5033 18.1056 35.912 18.5398 35.4649L17.608 34.5133C17.0434 35.0953 16.6681 35.8407 16.5329 36.6482C16.3977 37.4557 16.5093 38.2861 16.8525 39.0266H14.4944C13.6207 39.0266 12.7828 38.6721 12.165 38.0412C11.5472 37.4102 11.2002 36.5545 11.2002 35.6622C11.2002 34.7699 11.5472 33.9142 12.165 33.2833C12.7828 32.6523 13.6207 32.2979 14.4944 32.2979H19.8242C19.9173 32.8409 20.1272 33.3561 20.4389 33.8062C20.7506 34.2563 21.1562 34.6301 21.6265 34.9007L22.2802 33.7323C21.9164 33.52 21.6141 33.2133 21.4038 32.8432C21.1935 32.4731 21.0828 32.0529 21.0828 31.625C21.0828 31.1971 21.1935 30.7769 21.4038 30.4068C21.6141 30.0367 21.9164 29.73 22.2802 29.5177L21.6265 28.3493C21.1562 28.6199 20.7506 28.9937 20.4389 29.4438C20.1272 29.8939 19.9173 30.4091 19.8242 30.9521H15.1095C15.0047 30.1393 14.7056 29.3652 14.2386 28.6983C13.7717 28.0314 13.1512 27.4921 12.4319 27.128L12.1537 26.986L11.5643 28.1896L11.8426 28.3317C12.3505 28.589 12.7913 28.9659 13.1288 29.4312C13.4662 29.8965 13.6906 30.437 13.7835 31.0082C12.9379 31.1424 12.1456 31.5144 11.4954 32.0825C10.8451 32.6506 10.3625 33.3923 10.1017 34.2247C9.84089 35.057 9.81214 35.9471 10.0187 36.7952C10.2252 37.6433 10.6589 38.416 11.2711 39.0266H4.61163C3.90937 39.0265 3.22552 38.7973 2.65986 38.3723C2.09421 37.9472 1.67636 37.3487 1.46731 36.664C1.25826 35.9794 1.26895 35.2444 1.49781 34.5663C1.72667 33.8883 2.16173 33.3027 2.73949 32.895C2.81694 32.8402 2.88197 32.769 2.93018 32.6863C2.9784 32.6036 3.00869 32.5114 3.019 32.4157C3.02931 32.32 3.01941 32.2232 2.98996 32.1318C2.96051 32.0404 2.9122 31.9565 2.84829 31.8857C2.48687 31.4853 2.22604 31.0014 2.08819 30.4753C1.95035 29.9493 1.93961 29.3969 2.0569 28.8657C2.17419 28.3345 2.41601 27.8403 2.76158 27.4256C3.10714 27.0109 3.54612 26.6881 4.04081 26.4848C4.19702 27.2865 4.55439 28.033 5.07794 28.6512C5.60148 29.2694 6.27325 29.7382 7.02748 30.0116L7.4666 28.7427C6.83167 28.5125 6.28097 28.0892 5.88853 27.5299C5.49608 26.9706 5.28069 26.3019 5.2713 25.6139C5.2713 25.6081 5.2713 25.6022 5.2713 25.5963C5.2713 25.5879 5.27032 25.579 5.27032 25.5699C5.2713 24.6779 5.61868 23.8228 6.23627 23.192C6.85385 22.5613 7.69119 22.2065 8.56458 22.2055C9.02277 22.2046 9.476 22.3023 9.89473 22.4923L9.95238 22.6581C10.0967 23.0745 10.123 23.5241 10.0281 23.9551C9.93323 24.386 9.72107 24.7809 9.41607 25.0941L10.3479 26.0457C10.8289 25.5519 11.1635 24.9294 11.3132 24.2498C11.4629 23.5703 11.4215 22.8614 11.1939 22.2048L11.1488 22.0759C11.5307 21.4591 12.0677 20.9582 12.7037 20.6255C12.93 21.2831 13.3506 21.8529 13.9073 22.2563C14.464 22.6597 15.1295 22.8767 15.8121 22.8777H23.6176L23.0658 26.8197C23.048 26.9471 23.0663 27.077 23.1186 27.1941C23.1709 27.3112 23.2549 27.4105 23.3608 27.4803C23.4667 27.5501 23.59 27.5874 23.716 27.5878C23.842 27.5882 23.9655 27.5516 24.0718 27.4825L31.1577 22.8777H36.2366C37.11 22.8766 37.9473 22.5219 38.5649 21.8911C39.1825 21.2604 39.5299 20.4053 39.5309 19.5133V3.36436C39.5299 2.47238 39.1825 1.61723 38.5649 0.986505C37.9473 0.355782 37.11 0.00100178 36.2366 0ZM38.2132 19.5133C38.2126 20.0485 38.0041 20.5616 37.6336 20.94C37.263 21.3184 36.7606 21.5313 36.2366 21.5319H30.9658C30.8403 21.5318 30.7175 21.5683 30.6117 21.6371L24.5733 25.5617L25.0295 22.3C25.0429 22.2045 25.036 22.1073 25.0093 22.0148C24.9827 21.9223 24.9369 21.8368 24.875 21.7639C24.8132 21.6911 24.7367 21.6327 24.6508 21.5926C24.565 21.5526 24.4716 21.5319 24.3772 21.5319H15.8121C15.2881 21.5313 14.7857 21.3184 14.4152 20.94C14.0446 20.5616 13.8362 20.0485 13.8356 19.5133V3.36436C13.8362 2.82918 14.0446 2.3161 14.4152 1.93767C14.7857 1.55924 15.2881 1.34637 15.8121 1.34574H36.2366C36.7606 1.34637 37.263 1.55924 37.6336 1.93767C38.0041 2.3161 38.2126 2.82918 38.2132 3.36436V19.5133Z"
      fill="#36B3CF"
    />
    <path
      d="M34.9189 4.03721H20.4241V2.69147H19.1064V20.1861H20.4241V18.8404H30.9658C31.1405 18.8404 31.3081 18.7695 31.4317 18.6433C31.5552 18.5171 31.6246 18.346 31.6246 18.1675V15.476C31.6246 15.2976 31.5552 15.1264 31.4317 15.0002C31.3081 14.8741 31.1405 14.8032 30.9658 14.8032H20.4241V13.4574H27.6715C27.8463 13.4574 28.0138 13.3865 28.1374 13.2603C28.261 13.1342 28.3304 12.963 28.3304 12.7845V10.0931C28.3304 9.9146 28.261 9.74345 28.1374 9.61727C28.0138 9.49108 27.8463 9.42019 27.6715 9.42019H20.4241V8.07444H34.9189C35.0936 8.07444 35.2612 8.00355 35.3848 7.87736C35.5083 7.75118 35.5778 7.58003 35.5778 7.40157V4.71008C35.5778 4.53163 35.5083 4.36048 35.3848 4.23429C35.2612 4.1081 35.0936 4.03721 34.9189 4.03721ZM30.3069 16.1489V17.4947H20.4241V16.1489H30.3069ZM27.0127 10.7659V12.1117H20.4241V10.7659H27.0127ZM34.2601 6.7287H20.4241V5.38296H34.2601V6.7287Z"
      fill="#36B3CF"
    />
    <path
      d="M15.1533 4.03723H17.7887V5.38298H15.1533V4.03723Z"
      fill="#36B3CF"
    />
    <path d="M15.1533 6.7287H17.7887V8.07444H15.1533V6.7287Z" fill="#36B3CF" />
    <path d="M15.1533 9.4202H17.7887V10.7659H15.1533V9.4202Z" fill="#36B3CF" />
    <path
      d="M15.1533 12.1117H17.7887V13.4574H15.1533V12.1117Z"
      fill="#36B3CF"
    />
    <path
      d="M15.1533 14.8032H17.7887V16.1489H15.1533V14.8032Z"
      fill="#36B3CF"
    />
    <path
      d="M15.1533 17.4947H17.7887V18.8404H15.1533V17.4947Z"
      fill="#36B3CF"
    />
  </svg>