<svg
    width="24"
    height="24"
    viewBox="0 0 24 24"
    fill="none"
    xmlns="http://www.w3.org/2000/svg"
  >
    <path
      fillRule="evenodd"
      clipRule="evenodd"
      d="M8.45204 12C7.15304 12 6.00104 12.836 5.59904 14.071C5.00904 15.882 4.04904 18.832 4.04904 18.832C3.91204 19.253 4.06804 19.715 4.43404 19.966C6.21904 21.192 8.94304 22 12 22C15.057 22 17.78 21.192 19.566 19.966C19.931 19.715 20.088 19.253 19.951 18.832C19.951 18.832 18.99 15.882 18.4 14.071C17.998 12.836 16.847 12 15.548 12H8.45204ZM17.805 18.701L16.498 14.69C16.364 14.279 15.981 14 15.548 14H8.45204C8.01904 14 7.63504 14.279 7.50104 14.69L6.19504 18.701C7.68804 19.513 9.74104 20 12 20C14.258 20 16.311 19.513 17.805 18.701ZM15.193 9.696C15.662 9.604 16 9.193 16 8.715V3.285C16 2.807 15.662 2.396 15.193 2.304C14.194 2.107 13.119 2 12 2C10.88 2 9.80604 2.107 8.80704 2.304C8.33804 2.396 8.00004 2.807 8.00004 3.285V8.715C8.00004 9.193 8.33804 9.604 8.80704 9.696C9.80604 9.893 10.88 10 12 10C13.119 10 14.194 9.893 15.193 9.696ZM14 4.133C13.359 4.046 12.689 4 12 4C11.311 4 10.641 4.046 10 4.133V7.867C10.641 7.954 11.311 8 12 8C12.689 8 13.359 7.954 14 7.867V4.133Z"
      fill="white"
    />
  </svg>