<svg
    width="24"
    height="24"
    viewBox="0 0 24 24"
    fill="none"
    xmlns="http://www.w3.org/2000/svg"
  >
    <path
      fillRule="evenodd"
      clipRule="evenodd"
      d="M8 3.52003V3.00002C8 2.44802 8.447 2.00002 9 2.00002H15C15.552 2.00002 16 2.44802 16 3.00002V3.52003C16.088 3.52003 16.177 3.53202 16.266 3.55702C17.549 3.91102 18.673 4.42101 19.566 5.03401C19.837 5.22101 20 5.52902 20 5.85902V19.141C20 19.471 19.837 19.779 19.566 19.966C17.78 21.192 15.057 22 12 22C8.943 22 6.21899 21.192 4.43399 19.966C4.16199 19.779 4 19.471 4 19.141V5.85902C4 5.52902 4.16199 5.22101 4.43399 5.03401C5.32699 4.42101 6.45 3.91102 7.733 3.55702C7.822 3.53202 7.912 3.52003 8 3.52003ZM16 5.56099V7.00002C16 7.55202 15.552 8.00002 15 8.00002H9C8.447 8.00002 8 7.55202 8 7.00002V5.56099C7.255 5.78599 6.58 6.07201 6 6.40901V18.591C7.507 19.469 9.641 20 12 20C14.358 20 16.492 19.469 18 18.591V6.40901C17.419 6.07201 16.744 5.78599 16 5.56099ZM10 16H14C14.552 16 15 15.552 15 15C15 14.448 14.552 14 14 14H10C9.448 14 9 14.448 9 15C9 15.552 9.448 16 10 16ZM9 12C8.448 12 8 11.552 8 11C8 10.448 8.448 10 9 10H15C15.552 10 16 10.448 16 11C16 11.55 15.555 11.997 15.006 12H15H9ZM10 4.00002V6.00002H14V4.00002H10Z"
      fill="white"
    />
  </svg>