<svg
    width="24"
    height="24"
    viewBox="0 0 24 24"
    fill="none"
    xmlns="http://www.w3.org/2000/svg"
  >
    <path
      fillRule="evenodd"
      clipRule="evenodd"
      d="M5.99998 4V3C5.99998 2.448 6.44798 2 6.99998 2H17C17.552 2 18 2.448 18 3V4H21C21.3 4 21.583 4.134 21.773 4.366C21.963 4.598 22.039 4.902 21.981 5.196L20.981 10.196C20.887 10.664 20.477 11 20 11H17.88C17.688 11.612 17.268 12.183 16.639 12.659C15.778 13.311 14.489 13.796 13 13.949V16H15C15.552 16 16 16.448 16 17V20H17C17.552 20 18 20.448 18 21C18 21.552 17.552 22 17 22H6.99998C6.44798 22 5.99998 21.552 5.99998 21C5.99998 20.448 6.44798 20 6.99998 20H7.99998V17C7.99998 16.448 8.44798 16 8.99998 16H11V13.949C9.51098 13.796 8.22198 13.311 7.36098 12.659C6.73198 12.183 6.31198 11.612 6.11998 11H3.99997C3.52297 11 3.11298 10.664 3.01898 10.196L2.01898 5.196C1.96098 4.902 2.03698 4.598 2.22698 4.366C2.41698 4.134 2.69998 4 2.99998 4H5.99998ZM9.99998 18V20H14V18H9.99998ZM16 4H7.99998V10.222C7.99998 10.55 8.24498 10.82 8.56898 11.065C9.34098 11.65 10.596 12 12 12C13.404 12 14.659 11.65 15.431 11.065C15.755 10.82 16 10.55 16 10.222V4ZM4.21997 6L4.81998 9H5.99998V6H4.21997ZM18 6V9H19.18L19.78 6H18Z"
      fill="white"
    />
  </svg>