<svg
    width="24"
    height="24"
    viewBox="0 0 24 24"
    fill="none"
    xmlns="http://www.w3.org/2000/svg"
  >
    <path
      fillRule="evenodd"
      clipRule="evenodd"
      d="M21.9999 8C21.9999 6.61 21.2419 5.293 19.8659 4.251C18.0899 2.905 15.2319 2 11.9999 2C8.76794 2 5.90994 2.905 4.13394 4.251C2.75794 5.293 1.99994 6.61 1.99994 8V16C1.99994 17.39 2.75794 18.707 4.13394 19.749C5.90994 21.095 8.76794 22 11.9999 22C15.2319 22 18.0899 21.095 19.8659 19.749C21.2419 18.707 21.9999 17.39 21.9999 16V8ZM11.7449 4.002C9.11994 4.045 6.79494 4.744 5.34094 5.845C4.53194 6.458 3.99994 7.182 3.99994 8V16C3.99994 16.818 4.53194 17.542 5.34094 18.155C6.84194 19.292 9.27094 20 11.9999 20C14.7289 20 17.1579 19.292 18.6589 18.155C19.4679 17.542 19.9999 16.818 19.9999 16V8C19.9999 7.182 19.4679 6.458 18.6589 5.845C17.1579 4.708 14.7289 4 11.9999 4L11.7449 4.002ZM10.6849 13.135L12.0299 7.757C12.1309 7.351 12.4749 7.052 12.8909 7.006C13.3069 6.96 13.7069 7.178 13.8939 7.553L15.6179 11H16.9999C17.5519 11 17.9999 11.448 17.9999 12C17.9999 12.552 17.5519 13 16.9999 13H14.9999C14.6209 13 14.2749 12.786 14.1059 12.447L13.3149 10.865L11.9699 16.243C11.8689 16.649 11.5249 16.948 11.1089 16.994C10.6929 17.04 10.2929 16.822 10.1059 16.447L8.38194 13H6.99994C6.44794 13 5.99994 12.552 5.99994 12C5.99994 11.448 6.44794 11 6.99994 11H8.99994C9.37894 11 9.72494 11.214 9.89394 11.553L10.6849 13.135Z"
      fill="white"
    />
  </svg>