<svg
    width="50"
    height="32"
    viewBox="0 0 50 32"
    fill="none"
    xmlns="http://www.w3.org/2000/svg"
  >
    <path
      d="M33.6148 18.2756L29.3587 16.4234C29.058 16.2926 28.8639 15.9999 28.8639 15.6779V14.5335C30.2936 13.418 31.2125 11.7004 31.2125 9.77551V8.16457C31.6835 7.90973 31.9953 7.41728 31.9953 6.86573V6.70939C31.9953 3.35535 29.2085 0.626587 25.7831 0.626587H24.2175C20.7921 0.626587 18.0052 3.35535 18.0052 6.70939V8.12794C18.0052 8.61275 18.2183 9.05194 18.5897 9.33297C18.6527 9.38059 18.719 9.42247 18.7881 9.45871V9.77541C18.7881 11.7003 19.7069 13.4179 21.1365 14.5333V15.6778C21.1365 15.9998 20.9423 16.2925 20.6417 16.4233L16.3856 18.2755C14.9917 18.8821 14.0911 20.2391 14.0911 21.7327V31.2379C14.0911 31.6339 14.419 31.955 14.8235 31.955C15.228 31.955 15.5559 31.6339 15.5559 31.2379V21.7328C15.5559 21.6497 15.562 21.5675 15.5708 21.4861L17.5319 23.4063C17.8371 23.7052 18.0052 24.1026 18.0052 24.5253V31.238C18.0052 31.634 18.3332 31.9551 18.7377 31.9551C19.1422 31.9551 19.4701 31.634 19.4701 31.238V24.5253C19.4701 23.7195 19.1497 22.962 18.5677 22.3922L16.2297 20.1028C16.4404 19.8888 16.6931 19.7114 16.9806 19.5862L21.1649 17.7653L24.268 20.8037V31.2379C24.268 31.6339 24.5959 31.955 25.0004 31.955C25.4049 31.955 25.7328 31.6339 25.7328 31.2379V20.8038L28.8358 17.7654L33.02 19.5862C33.3075 19.7114 33.5603 19.8888 33.7709 20.1029L31.4329 22.3922C30.851 22.962 30.5306 23.7195 30.5306 24.5253V31.238C30.5306 31.634 30.8585 31.9551 31.263 31.9551C31.6675 31.9551 31.9954 31.634 31.9954 31.238V24.5253C31.9954 24.1027 32.1635 23.7052 32.4688 23.4063L34.4298 21.4861C34.4386 21.5676 34.4446 21.6496 34.4446 21.7327V31.2379C34.4446 31.6339 34.7726 31.955 35.1771 31.955C35.5816 31.955 35.9095 31.6339 35.9095 31.2379V21.7328C35.9092 20.2392 35.0086 18.8822 33.6148 18.2756ZM25.0001 19.4925L22.2773 16.8264C22.4844 16.4853 22.6012 16.0907 22.6012 15.6779V15.386C23.3398 15.6899 24.1503 15.8583 25.0002 15.8583C25.8501 15.8583 26.6604 15.69 27.3989 15.3861V15.6779C27.3989 16.0908 27.5158 16.4853 27.7229 16.8265L25.0001 19.4925ZM25.0002 14.4239C22.3825 14.424 20.2528 12.3387 20.2528 9.77551V9.45298C20.7098 9.2756 21.1559 8.99332 21.583 8.60749C21.8801 8.33888 21.8988 7.88516 21.6244 7.59408C21.3501 7.30311 20.8868 7.28484 20.5894 7.55344C20.2231 7.88458 19.8571 8.09849 19.5018 8.18933C19.4932 8.19153 19.4869 8.19249 19.4824 8.19287C19.4771 8.18283 19.47 8.16179 19.47 8.12804V6.70949C19.47 4.14634 21.5997 2.06101 24.2174 2.06101H25.783C28.4008 2.06101 30.5304 4.14634 30.5304 6.70949V6.86583C30.5304 6.88906 30.5161 6.90924 30.4974 6.91287C26.1115 7.76104 23.9117 6.16253 23.1695 5.4358C22.8835 5.15572 22.4197 5.15572 22.1338 5.4358C21.8477 5.71588 21.8477 6.16999 22.1338 6.44997C24.4082 8.677 27.727 8.71716 29.7476 8.47945V9.77541C29.7476 12.3386 27.6179 14.4239 25.0002 14.4239Z"
      fill="#36B3CF"
    />
    <path
      d="M13.2073 14.3747V12.8414C13.2073 10.9705 12.2143 9.32349 10.7181 8.37569C10.8105 8.08548 10.8587 7.78149 10.8587 7.47579C10.8587 5.81235 9.47669 4.45911 7.77785 4.45911C6.07902 4.45911 4.69699 5.81245 4.69699 7.47579C4.69699 7.78532 4.74484 8.08634 4.83742 8.37588C3.34132 9.32359 2.34844 10.9706 2.34844 12.8414V14.3744C2.34844 16.1862 3.2794 17.7882 4.69689 18.7485V20.3256C4.69689 20.6366 4.52042 20.9162 4.23634 21.0554L1.70303 22.2956C0.652541 22.81 0 23.8439 0 24.9939V31.238C0 31.634 0.327931 31.9551 0.732424 31.9551C1.13692 31.9551 1.46485 31.634 1.46485 31.238V25.3041L2.65802 26.4724C2.96319 26.7714 3.13136 27.1687 3.13136 27.5914V31.238C3.13136 31.634 3.45929 31.9551 3.86378 31.9551C4.26827 31.9551 4.5962 31.634 4.5962 31.238V27.5914C4.5962 26.7856 4.2757 26.0281 3.69386 25.4583L2.03321 23.8322C2.0252 23.8244 2.01661 23.8176 2.0084 23.8102C2.1126 23.7201 2.2295 23.6417 2.35821 23.5786L4.89152 22.3384C5.0213 22.2748 5.1421 22.1998 5.2547 22.1164L7.04543 23.8699V31.238C7.04543 31.6341 7.37336 31.9552 7.77785 31.9552C8.18235 31.9552 8.51028 31.6341 8.51028 31.238V23.8698L10.3011 22.1163C10.4138 22.1998 10.5345 22.2748 10.6643 22.3383L11.3628 22.6804C11.468 22.7319 11.5797 22.7563 11.6899 22.7563C11.9585 22.7563 12.2172 22.6109 12.3455 22.3597C12.5265 22.0055 12.3798 21.5747 12.018 21.3976L11.3195 21.0555C11.0353 20.9164 10.8588 20.6368 10.8588 20.3259V18.7488C12.2763 17.7885 13.2073 16.1864 13.2073 14.3747ZM7.77785 5.89344C8.66897 5.89344 9.39387 6.60333 9.39387 7.47579C9.39387 7.57189 9.38508 7.66608 9.36829 7.75835C8.86497 7.60708 8.33108 7.52513 7.77785 7.52513C7.22541 7.52513 6.69221 7.60679 6.18967 7.75768C6.17277 7.66541 6.16183 7.5717 6.16183 7.47579C6.16183 6.60324 6.88674 5.89344 7.77785 5.89344ZM7.77785 8.95956C9.96389 8.95956 11.7424 10.701 11.7424 12.8415V13.1014C8.69309 14.0156 6.8758 11.7443 6.79816 11.6447C6.67072 11.4784 6.4759 11.3744 6.26418 11.3597C6.05246 11.3451 5.84445 11.421 5.69435 11.5679C4.99523 12.2525 4.31046 12.5827 3.81593 12.7421C3.87013 10.6474 5.62589 8.95956 7.77785 8.95956ZM7.77785 22.5584L6.08537 20.9012C6.13478 20.7163 6.16183 20.5235 6.16183 20.3257V19.4502C6.67248 19.6065 7.21535 19.6907 7.77785 19.6907C8.34035 19.6907 8.88323 19.6065 9.39387 19.4502V20.3257C9.39387 20.5235 9.42092 20.7164 9.47034 20.9012L7.77785 22.5584ZM7.77785 18.2564C5.59181 18.2564 3.81329 16.5149 3.81329 14.3744V14.2258C4.39738 14.0945 5.26339 13.7891 6.16681 13.0777C6.48644 13.373 6.94328 13.7352 7.52502 14.0459C8.21311 14.4134 9.1634 14.7533 10.3242 14.7533C10.7653 14.7533 11.2372 14.7031 11.7362 14.5878C11.6226 16.6295 9.89075 18.2564 7.77785 18.2564Z"
      fill="#36B3CF"
    />
    <path
      d="M48.2971 20.7628L44.1981 18.756C43.9141 18.6168 43.7376 18.3372 43.7376 18.0263V17.0099C44.6971 16.1758 45.3032 14.9603 45.3032 13.6082V12.7918C45.3201 12.7918 45.3367 12.7923 45.3536 12.7923C45.7581 12.7923 46.086 12.4712 46.086 12.0751V10.5421C46.086 8.03339 44.0016 5.99234 41.4394 5.99234H39.8738C37.3117 5.99234 35.2272 8.03339 35.2272 10.5421V12.0751C35.2272 12.4712 35.5551 12.7923 35.9596 12.7923C35.9657 12.7923 35.9833 12.7921 36.01 12.7911V13.6082C36.01 14.9603 36.6163 16.1759 37.5758 17.01V18.0264C37.5758 18.3374 37.3993 18.617 37.1151 18.7561C36.7533 18.9332 36.6066 19.3639 36.7876 19.7182C36.9159 19.9695 37.1746 20.1149 37.4432 20.1149C37.5533 20.1149 37.665 20.0905 37.7702 20.039C37.9 19.9754 38.0208 19.9004 38.1334 19.817L39.9242 21.5705V31.2382C39.9242 31.6342 40.2521 31.9553 40.6566 31.9553C41.0611 31.9553 41.389 31.6342 41.389 31.2382V21.5703L43.1798 19.8168C43.2925 19.9003 43.4132 19.9753 43.543 20.0388L47.5093 21.9807L46.3062 23.1587C45.7244 23.7285 45.4039 24.486 45.4039 25.2918V31.238C45.4039 31.6341 45.7318 31.9552 46.1363 31.9552C46.5408 31.9552 46.8687 31.6341 46.8687 31.238V25.2918C46.8687 24.8692 47.0368 24.4718 47.3421 24.1729L48.4816 23.057C48.5162 23.1868 48.5352 23.3221 48.5352 23.461V31.238C48.5352 31.6341 48.8631 31.9552 49.2676 31.9552C49.6721 31.9552 50 31.6341 50 31.238V23.461C50.0001 22.311 49.3476 21.2771 48.2971 20.7628ZM36.692 11.2104V10.542H36.6921C36.6921 8.82419 38.1194 7.42657 39.8738 7.42657H41.4394C43.1938 7.42657 44.6212 8.82419 44.6212 10.542V11.3387C41.4373 11.1705 39.5159 9.95731 39.4972 9.94535C39.3733 9.86446 39.2319 9.82487 39.0912 9.82487C38.9021 9.82487 38.7146 9.8964 38.573 10.035C37.8722 10.7211 37.1856 11.0514 36.692 11.2104ZM40.6566 20.2591L38.9641 18.6018C39.0136 18.4169 39.0406 18.2241 39.0406 18.0263V17.8736C39.5441 18.0571 40.0886 18.1579 40.6566 18.1579C41.2247 18.1579 41.7691 18.0571 42.2726 17.8736V18.0263C42.2726 18.2241 42.2996 18.4169 42.3491 18.6018L40.6566 20.2591ZM40.6566 16.7236C38.9022 16.7236 37.4749 15.3261 37.4749 13.6082V12.452C37.9879 12.2513 38.5855 11.9322 39.1937 11.4248C39.9629 11.8167 41.5721 12.494 43.8384 12.7177V13.6082C43.8384 15.326 42.411 16.7236 40.6566 16.7236Z"
      fill="#36B3CF"
    />
  </svg>